<?xml version="1.0" standalone="no"?>
<!DOCTYPE svg PUBLIC "-//W3C//DTD SVG 20010904//EN"
 "http://www.w3.org/TR/2001/REC-SVG-20010904/DTD/svg10.dtd">
<svg version="1.0" xmlns="http://www.w3.org/2000/svg"
 width="500.000000pt" height="500.000000pt" viewBox="0 0 500.000000 500.000000"
 preserveAspectRatio="xMidYMid meet">

<g transform="translate(0.000000,500.000000) scale(0.100000,-0.100000)"
fill="#000000" stroke="none">
<path d="M0 2500 l0 -2500 2500 0 2500 0 0 2500 0 2500 -2500 0 -2500 0 0
-2500z m2495 1261 c-20 -65 -24 -147 -13 -296 7 -108 8 -182 1 -228 -5 -37 -8
-67 -7 -67 2 0 33 7 71 16 37 9 104 17 148 17 222 1 286 -135 192 -408 -19
-55 -44 -121 -56 -147 -11 -27 -30 -69 -41 -96 l-20 -47 21 28 c95 125 186
230 206 240 33 15 57 -1 61 -39 2 -17 -22 -108 -52 -204 -31 -95 -54 -175 -52
-177 1 -2 79 83 172 189 293 335 424 456 661 615 159 106 242 146 314 151 49
4 60 1 79 -18 20 -20 22 -30 17 -94 -6 -88 -55 -208 -201 -491 -166 -320 -288
-529 -490 -838 -71 -110 -101 -147 -114 -145 -9 2 -16 11 -16 20 1 9 58 108
126 220 165 269 281 477 442 798 146 289 186 388 186 456 0 40 -2 44 -24 44
-53 0 -310 -158 -474 -292 -157 -129 -396 -379 -629 -658 -80 -96 -108 -115
-139 -89 -21 17 -14 48 53 252 30 93 53 170 51 173 -8 7 -257 -337 -441 -607
-58 -86 -113 -161 -120 -168 -20 -16 -47 -3 -47 21 0 11 58 122 129 247 376
662 453 928 290 1014 -28 15 -50 17 -124 14 -49 -3 -112 -12 -140 -21 -49 -15
-51 -18 -77 -83 -34 -83 -86 -154 -154 -207 -29 -23 -61 -58 -73 -78 -26 -44
-67 -60 -86 -35 -7 9 -15 14 -18 11 -6 -7 -146 -44 -166 -44 -14 0 -11 48 6
109 l6 25 -30 -22 c-33 -23 -47 -64 -84 -250 -25 -123 -28 -123 -49 -4 -8 40
-17 75 -21 78 -11 7 -66 -103 -74 -149 -4 -21 -11 -39 -15 -42 -11 -7 -81 10
-200 46 -100 31 -176 74 -273 153 l-58 47 -67 -51 c-327 -251 -476 -461 -387
-544 32 -29 110 -53 200 -61 152 -14 527 27 701 75 82 23 144 26 144 7 0 -14
-198 -66 -348 -92 -132 -23 -377 -38 -494 -31 -373 23 -407 194 -100 488 76
72 262 226 299 246 15 9 14 14 -18 54 -20 23 -79 106 -132 183 -53 77 -120
167 -149 199 -61 69 -147 127 -212 146 -25 7 -46 16 -46 20 0 4 30 21 68 37
324 145 723 38 957 -257 l20 -24 -25 17 c-101 69 -224 106 -388 114 l-113 6
22 -59 c23 -65 131 -288 153 -317 13 -16 18 -15 78 22 36 21 124 69 196 105
73 36 132 71 132 77 0 27 -108 215 -166 289 -137 172 -299 254 -504 254 -160
0 -325 -50 -492 -150 -86 -51 -89 -51 -43 -10 108 97 270 187 401 221 76 20
242 20 319 0 195 -50 404 -207 570 -426 40 -53 74 -102 77 -109 3 -9 13 -11
30 -7 23 6 27 14 33 59 10 74 56 195 100 264 81 127 242 247 407 305 100 35
132 37 123 10z m-474 -1251 c31 -17 23 -56 -22 -105 -39 -42 -40 -45 -24 -61
31 -32 -7 -119 -67 -150 -41 -21 -114 -18 -138 6 -27 27 -25 50 6 96 34 50 54
65 81 61 15 -3 40 13 84 54 35 32 61 60 58 63 -2 3 -16 6 -31 8 -32 5 -42 13
-33 27 8 14 60 14 86 1z m2088 -56 c13 -28 18 -51 13 -56 -11 -11 -42 0 -42
16 0 6 -5 18 -10 26 -8 13 -14 10 -34 -15 -19 -24 -27 -27 -37 -18 -10 10 -6
21 16 53 38 55 64 54 94 -6z m-9 -84 c15 -29 3 -42 -31 -35 -21 5 -39 0 -64
-15 -32 -20 -82 -86 -73 -96 3 -2 33 18 68 46 34 27 66 50 69 50 19 0 28 -25
24 -61 -3 -22 -1 -39 4 -39 27 0 80 51 106 103 23 45 34 57 53 57 29 0 29 -6
4 -61 -51 -114 12 -103 101 17 61 82 95 68 64 -26 -9 -28 -14 -54 -11 -57 3
-3 27 8 53 25 30 20 51 28 57 22 14 -14 -17 -43 -84 -79 -62 -33 -68 -42 -110
-176 -20 -63 -69 -157 -98 -189 -15 -16 -47 -38 -72 -49 -96 -43 -283 -13
-333 54 -18 25 -18 28 -3 57 28 55 184 148 425 255 84 38 110 61 34 31 -38
-15 -44 -15 -73 -1 -27 14 -35 14 -53 3 -12 -8 -37 -17 -54 -21 -27 -5 -37 -2
-55 18 l-23 25 -28 -24 c-20 -17 -40 -24 -71 -24 -75 0 -83 42 -23 115 67 81
172 121 197 75z m-3220 -865 c0 -33 2 -35 35 -35 33 0 35 2 35 35 0 19 5 35
10 35 6 0 10 -33 10 -80 0 -47 -4 -80 -10 -80 -5 0 -10 16 -10 35 0 33 -2 35
-35 35 -33 0 -35 -2 -35 -35 0 -24 -5 -35 -15 -35 -12 0 -15 16 -15 80 0 64 3
80 15 80 10 0 15 -11 15 -35z m305 12 c21 -17 27 -32 27 -61 0 -51 -27 -78
-77 -78 -44 0 -72 23 -81 69 -5 27 -1 37 24 63 37 36 71 39 107 7z m164 -39
l28 -62 28 62 c39 87 55 82 55 -18 0 -64 -3 -80 -15 -80 -11 0 -15 12 -16 43
l-1 42 -19 -42 c-11 -24 -26 -43 -33 -43 -7 0 -22 21 -33 48 l-21 47 -1 -47
c-1 -36 -5 -48 -16 -48 -12 0 -15 15 -15 73 0 110 18 117 59 25z m289 50 c-3
-7 -19 -14 -36 -16 -24 -2 -32 -8 -32 -23 0 -15 7 -19 31 -19 38 0 35 -24 -4
-28 -19 -2 -27 -9 -27 -23 0 -15 7 -19 35 -19 19 0 35 -4 35 -10 0 -5 -22 -10
-50 -10 l-50 0 0 73 c0 41 3 77 7 80 3 4 26 7 51 7 30 0 42 -4 40 -12z m170 0
c17 -17 15 -38 -3 -38 -8 0 -15 5 -15 11 0 6 -10 9 -22 7 -32 -4 -27 -20 12
-39 37 -18 53 -40 44 -64 -15 -38 -93 -38 -107 -1 -9 23 14 32 29 12 14 -20
45 -18 52 2 2 8 -12 19 -36 29 -45 17 -57 42 -35 72 16 23 62 28 81 9z m202
-3 c0 -8 -9 -15 -20 -15 -18 0 -20 -7 -20 -65 0 -51 -3 -65 -15 -65 -12 0 -15
14 -15 65 0 58 -2 65 -20 65 -11 0 -20 7 -20 15 0 12 13 15 55 15 42 0 55 -3
55 -15z m182 -65 c33 -89 32 -80 13 -80 -9 0 -18 7 -21 15 -4 9 -19 15 -35 15
-17 0 -32 -6 -35 -15 -7 -18 -38 -20 -32 -2 3 6 16 42 29 80 16 46 29 67 39
65 8 -2 27 -37 42 -78z m141 43 l15 -38 18 38 c10 20 24 37 31 37 17 0 17 -3
-12 -60 -14 -27 -25 -61 -25 -75 0 -16 -6 -25 -15 -25 -10 0 -15 11 -15 35 0
19 -9 49 -20 67 -23 39 -25 58 -6 58 8 0 21 -17 29 -37z m367 17 c8 -16 8 -20
-4 -20 -8 0 -18 5 -22 11 -4 8 -9 8 -17 0 -8 -8 -3 -19 18 -41 19 -20 32 -27
39 -20 5 5 16 10 23 10 10 0 10 -5 1 -25 -8 -18 -8 -28 1 -39 12 -15 16 -14
-93 -18 -15 0 -32 5 -37 13 -13 21 -11 55 5 68 8 7 12 21 9 31 -12 44 56 70
77 30z m368 4 c22 -15 30 -44 13 -44 -5 0 -14 7 -21 15 -18 22 -67 19 -80 -4
-25 -48 7 -99 55 -87 14 4 25 11 25 16 0 6 7 10 15 10 27 0 16 -31 -16 -44
-40 -17 -75 -9 -99 22 -58 74 31 170 108 116z m142 -55 c5 -60 6 -64 30 -64
24 0 25 3 28 68 2 51 6 67 17 67 20 0 21 -118 1 -145 -15 -21 -67 -25 -90 -5
-21 16 -23 154 -3 148 7 -3 14 -30 17 -69z m210 -9 c0 -64 -3 -80 -15 -80 -12
0 -15 16 -15 80 0 64 3 80 15 80 12 0 15 -16 15 -80z m174 64 c9 -8 16 -20 16
-25 0 -12 -27 -12 -35 1 -3 6 -15 10 -26 10 -31 0 -19 -32 15 -41 50 -14 62
-58 22 -84 -27 -18 -72 -7 -82 20 -10 25 4 30 26 10 19 -17 50 -15 50 5 0 5
-17 18 -37 27 -26 13 -39 26 -41 42 -7 44 59 69 92 35z m126 -64 c0 -64 -3
-80 -15 -80 -12 0 -15 16 -15 80 0 64 3 80 15 80 12 0 15 -16 15 -80z m152 22
l38 -57 0 58 c0 44 3 57 15 57 12 0 15 -16 15 -80 0 -70 -2 -80 -17 -80 -10 0
-31 20 -48 48 l-30 47 -3 -47 c-2 -34 -7 -48 -18 -48 -11 0 -14 17 -14 80 0
98 11 102 62 22z m238 43 c0 -10 -10 -15 -30 -15 -23 0 -30 -4 -30 -20 0 -16
7 -20 31 -20 38 0 35 -24 -4 -28 -41 -5 -38 -42 3 -42 17 0 30 -4 30 -10 0 -5
-20 -10 -45 -10 l-45 0 0 80 0 80 45 0 c33 0 45 -4 45 -15z"/>
<path d="M2153 3316 c-32 -36 -68 -82 -80 -104 l-22 -39 24 5 c14 2 27 12 30
22 3 9 30 54 59 99 30 44 52 81 51 81 -2 0 -30 -29 -62 -64z"/>
<path d="M1995 3073 c-32 -67 -77 -184 -73 -188 2 -2 15 7 29 18 23 18 53 80
106 215 3 7 -3 12 -15 12 -14 0 -27 -16 -47 -57z"/>
<path d="M1525 2932 c-71 -38 -156 -85 -188 -105 l-58 -37 21 -28 c34 -43 131
-141 175 -177 41 -34 154 -100 158 -94 2 2 11 30 20 61 10 31 36 84 58 118
l41 61 -17 62 c-15 58 -34 117 -57 180 -6 15 -13 27 -17 27 -3 0 -64 -31 -136
-68z"/>
<path d="M1864 2311 c-35 -21 -63 -76 -47 -92 23 -23 118 54 111 90 -5 23 -29
24 -64 2z"/>
<path d="M4140 2077 c-198 -99 -280 -157 -267 -191 10 -25 83 -56 145 -62 116
-12 182 42 241 198 38 97 46 128 35 128 -5 -1 -74 -33 -154 -73z"/>
<path d="M1096 1494 c-20 -20 -20 -44 0 -72 22 -32 64 -26 82 11 12 24 11 31
-2 53 -19 28 -57 32 -80 8z"/>
<path d="M2136 1464 c-10 -26 -7 -34 15 -34 15 0 19 4 15 16 -3 9 -6 20 -6 25
0 15 -17 10 -24 -7z"/>
<path d="M2630 1430 c0 -23 22 -35 46 -26 15 6 15 8 -1 26 -23 26 -45 26 -45
0z"/>
</g>
</svg>
